glyphs
<glyph name="quotedbl" format="2">
  <advance width="12"/>
    <unicode hex="0022"/>
  <outline>
    <contour>
      <point x="3" y="20" type="line"/>
      <point x="2" y="20" type="line"/>
      <point x="2" y="19" type="line"/>
      <point x="2" y="18" type="line"/>
      <point x="2" y="17" type="line"/>
      <point x="2" y="16" type="line"/>
      <point x="2" y="15" type="line"/>
      <point x="2" y="14" type="line"/>
      <point x="3" y="14" type="line"/>
      <point x="4" y="14" type="line"/>
      <point x="4" y="15" type="line"/>
      <point x="4" y="16" type="line"/>
      <point x="5" y="16" type="line"/>
      <point x="5" y="17" type="line"/>
      <point x="5" y="18" type="line"/>
      <point x="5" y="19" type="line"/>
      <point x="5" y="20" type="line"/>
      <point x="4" y="20" type="line"/>
    </contour>
    <contour>
      <point x="8" y="20" type="line"/>
      <point x="7" y="20" type="line"/>
      <point x="7" y="19" type="line"/>
      <point x="7" y="18" type="line"/>
      <point x="7" y="17" type="line"/>
      <point x="7" y="16" type="line"/>
      <point x="7" y="15" type="line"/>
      <point x="7" y="14" type="line"/>
      <point x="8" y="14" type="line"/>
      <point x="9" y="14" type="line"/>
      <point x="9" y="15" type="line"/>
      <point x="9" y="16" type="line"/>
      <point x="10" y="16" type="line"/>
      <point x="10" y="17" type="line"/>
      <point x="10" y="18" type="line"/>
      <point x="10" y="19" type="line"/>
      <point x="10" y="20" type="line"/>
      <point x="9" y="20" type="line"/>
    </contour>
  </outline>
</glyph>
<glyph name="numbersign" format="2">
  <advance width="18"/>
    <unicode hex="0023"/>
  <outline>
    <contour>
      <point x="8" y="18" type="line"/>
      <point x="7" y="18" type="line"/>
      <point x="7" y="17" type="line"/>
      <point x="7" y="16" type="line"/>
      <point x="6" y="16" type="line"/>
      <point x="6" y="15" type="line"/>
      <point x="6" y="14" type="line"/>
      <point x="5" y="14" type="line"/>
      <point x="4" y="14" type="line"/>
      <point x="3" y="14" type="line"/>
      <point x="2" y="14" type="line"/>
      <point x="2" y="13" type="line"/>
      <point x="2" y="12" type="line"/>
      <point x="3" y="12" type="line"/>
      <point x="4" y="12" type="line"/>
      <point x="5" y="12" type="line"/>
      <point x="5" y="11" type="line"/>
      <point x="5" y="10" type="line"/>
      <point x="5" y="9" type="line"/>
      <point x="4" y="9" type="line"/>
      <point x="4" y="8" type="line"/>
      <point x="4" y="7" type="line"/>
      <point x="4" y="6" type="line"/>
      <point x="4" y="5" type="line"/>
      <point x="3" y="5" type="line"/>
      <point x="2" y="5" type="line"/>
      <point x="1" y="5" type="line"/>
      <point x="1" y="4" type="line"/>
      <point x="1" y="3" type="line"/>
      <point x="2" y="3" type="line"/>
      <point x="3" y="3" type="line"/>
      <point x="3" y="2" type="line"/>
      <point x="3" y="1" type="line"/>
      <point x="2" y="1" type="line"/>
      <point x="2" y="0" type="line"/>
      <point x="2" y="-1" type="line"/>
      <point x="3" y="-1" type="line"/>
      <point x="4" y="-1" type="line"/>
      <point x="4" y="0" type="line"/>
      <point x="4" y="1" type="line"/>
      <point x="5" y="1" type="line"/>
      <point x="5" y="2" type="line"/>
      <point x="5" y="3" type="line"/>
      <point x="6" y="3" type="line"/>
      <point x="7" y="3" type="line"/>
      <point x="8" y="3" type="line"/>
      <point x="9" y="3" type="line"/>
      <point x="10" y="3" type="line"/>
      <point x="10" y="2" type="line"/>
      <point x="10" y="1" type="line"/>
      <point x="9" y="1" type="line"/>
      <point x="9" y="0" type="line"/>
      <point x="9" y="-1" type="line"/>
      <point x="10" y="-1" type="line"/>
      <point x="11" y="-1" type="line"/>
      <point x="11" y="0" type="line"/>
      <point x="11" y="1" type="line"/>
      <point x="12" y="1" type="line"/>
      <point x="12" y="2" type="line"/>
      <point x="12" y="3" type="line"/>
      <point x="13" y="3" type="line"/>
      <point x="14" y="3" type="line"/>
      <point x="14" y="4" type="line"/>
      <point x="14" y="5" type="line"/>
      <point x="13" y="5" type="line"/>
      <point x="13" y="6" type="line"/>
      <point x="13" y="7" type="line"/>
      <point x="13" y="8" type="line"/>
      <point x="14" y="8" type="line"/>
      <point x="14" y="9" type="line"/>
      <point x="14" y="10" type="line"/>
      <point x="14" y="11" type="line"/>
      <point x="14" y="12" type="line"/>
      <point x="14" y="13" type="line"/>
      <point x="14" y="14" type="line"/>
      <point x="14" y="15" type="line"/>
      <point x="14" y="16" type="line"/>
      <point x="13" y="16" type="line"/>
      <point x="13" y="15" type="line"/>
      <point x="13" y="14" type="line"/>
      <point x="12" y="14" type="line"/>
      <point x="11" y="14" type="line"/>
      <point x="10" y="14" type="line"/>
      <point x="9" y="14" type="line"/>
      <point x="8" y="14" type="line"/>
      <point x="8" y="15" type="line"/>
      <point x="8" y="16" type="line"/>
      <point x="9" y="16" type="line"/>
      <point x="9" y="17" type="line"/>
      <point x="9" y="18" type="line"/>
    </contour>
    <contour>
      <point x="7" y="12" type="line"/>
      <point x="8" y="12" type="line"/>
      <point x="9" y="12" type="line"/>
      <point x="10" y="12" type="line"/>
      <point x="11" y="12" type="line"/>
      <point x="12" y="12" type="line"/>
      <point x="12" y="11" type="line"/>
      <point x="12" y="10" type="line"/>
      <point x="12" y="9" type="line"/>
      <point x="12" y="8" type="line"/>
      <point x="11" y="8" type="line"/>
      <point x="11" y="7" type="line"/>
      <point x="11" y="6" type="line"/>
      <point x="11" y="5" type="line"/>
      <point x="10" y="5" type="line"/>
      <point x="9" y="5" type="line"/>
      <point x="8" y="5" type="line"/>
      <point x="7" y="5" type="line"/>
      <point x="6" y="5" type="line"/>
      <point x="6" y="6" type="line"/>
      <point x="6" y="7" type="line"/>
      <point x="6" y="8" type="line"/>
      <point x="6" y="9" type="line"/>
      <point x="7" y="9" type="line"/>
      <point x="7" y="10" type="line"/>
      <point x="7" y="11" type="line"/>
    </contour>
  </outline>
</glyph>
<glyph name="ampersand" format="2">
  <advance width="16"/>
    <unicode hex="0026"/>
  <outline>
    <contour>
      <point x="6" y="20" type="line"/>
      <point x="5" y="20" type="line"/>
      <point x="5" y="19" type="line"/>
      <point x="4" y="19" type="line"/>
      <point x="4" y="18" type="line"/>
      <point x="3" y="18" type="line"/>
      <point x="3" y="17" type="line"/>
      <point x="3" y="16" type="line"/>
      <point x="2" y="16" type="line"/>
      <point x="2" y="15" type="line"/>
      <point x="2" y="14" type="line"/>
      <point x="3" y="14" type="line"/>
      <point x="3" y="13" type="line"/>
      <point x="3" y="12" type="line"/>
      <point x="4" y="12" type="line"/>
      <point x="4" y="11" type="line"/>
      <point x="5" y="11" type="line"/>
      <point x="5" y="10" type="line"/>
      <point x="4" y="10" type="line"/>
      <point x="4" y="9" type="line"/>
      <point x="3" y="9" type="line"/>
      <point x="2" y="9" type="line"/>
      <point x="2" y="8" type="line"/>
      <point x="2" y="7" type="line"/>
      <point x="1" y="7" type="line"/>
      <point x="1" y="6" type="line"/>
      <point x="1" y="5" type="line"/>
      <point x="1" y="4" type="line"/>
      <point x="1" y="3" type="line"/>
      <point x="2" y="3" type="line"/>
      <point x="2" y="2" type="line"/>
      <point x="2" y="1" type="line"/>
      <point x="3" y="1" type="line"/>
      <point x="4" y="1" type="line"/>
      <point x="4" y="0" type="line"/>
      <point x="5" y="0" type="line"/>
      <point x="6" y="0" type="line"/>
      <point x="7" y="0" type="line"/>
      <point x="8" y="0" type="line"/>
      <point x="9" y="0" type="line"/>
      <point x="10" y="0" type="line"/>
      <point x="10" y="1" type="line"/>
      <point x="11" y="1" type="line"/>
      <point x="11" y="2" type="line"/>
      <point x="12" y="2" type="line"/>
      <point x="12" y="1" type="line"/>
      <point x="13" y="1" type="line"/>
      <point x="13" y="0" type="line"/>
      <point x="14" y="0" type="line"/>
      <point x="14" y="1" type="line"/>
      <point x="14" y="2" type="line"/>
      <point x="14" y="3" type="line"/>
      <point x="13" y="3" type="line"/>
      <point x="13" y="4" type="line"/>
      <point x="14" y="4" type="line"/>
      <point x="14" y="5" type="line"/>
      <point x="14" y="6" type="line"/>
      <point x="14" y="7" type="line"/>
      <point x="14" y="8" type="line"/>
      <point x="14" y="9" type="line"/>
      <point x="13" y="9" type="line"/>
      <point x="13" y="8" type="line"/>
      <point x="13" y="7" type="line"/>
      <point x="13" y="6" type="line"/>
      <point x="12" y="6" type="line"/>
      <point x="12" y="5" type="line"/>
      <point x="11" y="5" type="line"/>
      <point x="11" y="6" type="line"/>
      <point x="10" y="6" type="line"/>
      <point x="10" y="7" type="line"/>
      <point x="9" y="7" type="line"/>
      <point x="9" y="8" type="line"/>
      <point x="8" y="8" type="line"/>
      <point x="8" y="9" type="line"/>
      <point x="7" y="9" type="line"/>
      <point x="7" y="10" type="line"/>
      <point x="8" y="10" type="line"/>
      <point x="9" y="10" type="line"/>
      <point x="9" y="11" type="line"/>
      <point x="10" y="11" type="line"/>
      <point x="10" y="12" type="line"/>
      <point x="11" y="12" type="line"/>
      <point x="11" y="13" type="line"/>
      <point x="11" y="14" type="line"/>
      <point x="12" y="14" type="line"/>
      <point x="12" y="15" type="line"/>
      <point x="12" y="16" type="line"/>
      <point x="12" y="17" type="line"/>
      <point x="11" y="17" type="line"/>
      <point x="11" y="18" type="line"/>
      <point x="11" y="19" type="line"/>
      <point x="10" y="19" type="line"/>
      <point x="9" y="19" type="line"/>
      <point x="9" y="20" type="line"/>
      <point x="8" y="20" type="line"/>
      <point x="7" y="20" type="line"/>
    </contour>
    <contour>
      <point x="6" y="18" type="line"/>
      <point x="7" y="18" type="line"/>
      <point x="8" y="18" type="line"/>
      <point x="8" y="17" type="line"/>
      <point x="9" y="17" type="line"/>
      <point x="9" y="16" type="line"/>
      <point x="9" y="15" type="line"/>
      <point x="9" y="14" type="line"/>
      <point x="9" y="13" type="line"/>
      <point x="8" y="13" type="line"/>
      <point x="8" y="12" type="line"/>
      <point x="7" y="12" type="line"/>
      <point x="6" y="12" type="line"/>
      <point x="6" y="13" type="line"/>
      <point x="5" y="13" type="line"/>
      <point x="5" y="14" type="line"/>
      <point x="5" y="15" type="line"/>
      <point x="5" y="16" type="line"/>
      <point x="5" y="17" type="line"/>
      <point x="6" y="17" type="line"/>
    </contour>
    <contour>
      <point x="5" y="8" type="line"/>
      <point x="6" y="8" type="line"/>
      <point x="6" y="7" type="line"/>
      <point x="7" y="7" type="line"/>
      <point x="7" y="6" type="line"/>
      <point x="8" y="6" type="line"/>
      <point x="8" y="5" type="line"/>
      <point x="9" y="5" type="line"/>
      <point x="9" y="4" type="line"/>
      <point x="10" y="4" type="line"/>
      <point x="10" y="3" type="line"/>
      <point x="9" y="3" type="line"/>
      <point x="9" y="2" type="line"/>
      <point x="8" y="2" type="line"/>
      <point x="7" y="2" type="line"/>
      <point x="6" y="2" type="line"/>
      <point x="5" y="2" type="line"/>
      <point x="5" y="3" type="line"/>
      <point x="4" y="3" type="line"/>
      <point x="4" y="4" type="line"/>
      <point x="4" y="5" type="line"/>
      <point x="4" y="6" type="line"/>
      <point x="4" y="7" type="line"/>
      <point x="5" y="7" type="line"/>
    </contour>
  </outline>
</glyph>
<glyph name="parenleft" format="2">
  <advance width="10"/>
    <unicode hex="0028"/>
  <outline>
    <contour>
      <point x="9" y="19" type="line"/>
      <point x="9" y="20" type="line"/>
      <point x="8" y="20" type="line"/>
      <point x="8" y="19" type="line"/>
      <point x="7" y="19" type="line"/>
      <point x="6" y="19" type="line"/>
      <point x="6" y="18" type="line"/>
      <point x="5" y="18" type="line"/>
      <point x="5" y="17" type="line"/>
      <point x="4" y="17" type="line"/>
      <point x="4" y="16" type="line"/>
      <point x="3" y="16" type="line"/>
      <point x="3" y="15" type="line"/>
      <point x="3" y="14" type="line"/>
      <point x="2" y="14" type="line"/>
      <point x="2" y="13" type="line"/>
      <point x="2" y="12" type="line"/>
      <point x="2" y="11" type="line"/>
      <point x="1" y="11" type="line"/>
      <point x="1" y="10" type="line"/>
      <point x="1" y="9" type="line"/>
      <point x="1" y="8" type="line"/>
      <point x="1" y="7" type="line"/>
      <point x="1" y="6" type="line"/>
      <point x="1" y="5" type="line"/>
      <point x="1" y="4" type="line"/>
      <point x="2" y="4" type="line"/>
      <point x="2" y="3" type="line"/>
      <point x="2" y="2" type="line"/>
      <point x="2" y="1" type="line"/>
      <point x="3" y="1" type="line"/>
      <point x="3" y="0" type="line"/>
      <point x="3" y="-1" type="line"/>
      <point x="4" y="-1" type="line"/>
      <point x="4" y="-2" type="line"/>
      <point x="5" y="-2" type="line"/>
      <point x="5" y="-3" type="line"/>
      <point x="6" y="-3" type="line"/>
      <point x="6" y="-4" type="line"/>
      <point x="7" y="-4" type="line"/>
      <point x="8" y="-4" type="line"/>
      <point x="8" y="-5" type="line"/>
      <point x="9" y="-5" type="line"/>
      <point x="9" y="-4" type="line"/>
      <point x="9" y="-3" type="line"/>
      <point x="9" y="-2" type="line"/>
      <point x="8" y="-2" type="line"/>
      <point x="7" y="-2" type="line"/>
      <point x="7" y="-1" type="line"/>
      <point x="6" y="-1" type="line"/>
      <point x="6" y="0" type="line"/>
      <point x="6" y="1" type="line"/>
      <point x="5" y="1" type="line"/>
      <point x="5" y="2" type="line"/>
      <point x="5" y="3" type="line"/>
      <point x="4" y="3" type="line"/>
      <point x="4" y="4" type="line"/>
      <point x="4" y="5" type="line"/>
      <point x="4" y="6" type="line"/>
      <point x="4" y="7" type="line"/>
      <point x="4" y="8" type="line"/>
      <point x="4" y="9" type="line"/>
      <point x="4" y="10" type="line"/>
      <point x="4" y="11" type="line"/>
      <point x="4" y="12" type="line"/>
      <point x="5" y="12" type="line"/>
      <point x="5" y="13" type="line"/>
      <point x="5" y="14" type="line"/>
      <point x="6" y="14" type="line"/>
      <point x="6" y="15" type="line"/>
      <point x="6" y="16" type="line"/>
      <point x="7" y="16" type="line"/>
      <point x="7" y="17" type="line"/>
      <point x="8" y="17" type="line"/>
      <point x="9" y="17" type="line"/>
      <point x="9" y="18" type="line"/>
    </contour>
  </outline>
</glyph>
<glyph name="plus" format="2">
  <advance width="14"/>
    <unicode hex="002B"/>
  <outline>
    <contour>
      <point x="7" y="13" type="line"/>
      <point x="6" y="13" type="line"/>
      <point x="6" y="12" type="line"/>
      <point x="6" y="11" type="line"/>
      <point x="6" y="10" type="line"/>
      <point x="6" y="9" type="line"/>
      <point x="6" y="8" type="line"/>
      <point x="5" y="8" type="line"/>
      <point x="4" y="8" type="line"/>
      <point x="3" y="8" type="line"/>
      <point x="2" y="8" type="line"/>
      <point x="1" y="8" type="line"/>
      <point x="1" y="7" type="line"/>
      <point x="1" y="6" type="line"/>
      <point x="2" y="6" type="line"/>
      <point x="3" y="6" type="line"/>
      <point x="4" y="6" type="line"/>
      <point x="5" y="6" type="line"/>
      <point x="6" y="6" type="line"/>
      <point x="6" y="5" type="line"/>
      <point x="6" y="4" type="line"/>
      <point x="6" y="3" type="line"/>
      <point x="6" y="2" type="line"/>
      <point x="6" y="1" type="line"/>
      <point x="7" y="1" type="line"/>
      <point x="8" y="1" type="line"/>
      <point x="8" y="2" type="line"/>
      <point x="8" y="3" type="line"/>
      <point x="8" y="4" type="line"/>
      <point x="8" y="5" type="line"/>
      <point x="8" y="6" type="line"/>
      <point x="9" y="6" type="line"/>
      <point x="10" y="6" type="line"/>
      <point x="11" y="6" type="line"/>
      <point x="12" y="6" type="line"/>
      <point x="13" y="6" type="line"/>
      <point x="13" y="7" type="line"/>
      <point x="13" y="8" type="line"/>
      <point x="12" y="8" type="line"/>
      <point x="11" y="8" type="line"/>
      <point x="10" y="8" type="line"/>
      <point x="9" y="8" type="line"/>
      <point x="8" y="8" type="line"/>
      <point x="8" y="9" type="line"/>
      <point x="8" y="10" type="line"/>
      <point x="8" y="11" type="line"/>
      <point x="8" y="12" type="line"/>
      <point x="8" y="13" type="line"/>
    </contour>
  </outline>
</glyph>
<glyph name="zero" format="2">
  <advance width="15"/>
    <unicode hex="0030"/>
  <outline>
    <contour>
      <point x="6" y="19" type="line"/>
      <point x="5" y="19" type="line"/>
      <point x="5" y="18" type="line"/>
      <point x="4" y="18" type="line"/>
      <point x="3" y="18" type="line"/>
      <point x="3" y="17" type="line"/>
      <point x="2" y="17" type="line"/>
      <point x="2" y="16" type="line"/>
      <point x="2" y="15" type="line"/>
      <point x="1" y="15" type="line"/>
      <point x="1" y="14" type="line"/>
      <point x="1" y="13" type="line"/>
      <point x="1" y="12" type="line"/>
      <point x="1" y="11" type="line"/>
      <point x="1" y="10" type="line"/>
      <point x="1" y="9" type="line"/>
      <point x="1" y="8" type="line"/>
      <point x="1" y="7" type="line"/>
      <point x="1" y="6" type="line"/>
      <point x="1" y="5" type="line"/>
      <point x="1" y="4" type="line"/>
      <point x="2" y="4" type="line"/>
      <point x="2" y="3" type="line"/>
      <point x="2" y="2" type="line"/>
      <point x="3" y="2" type="line"/>
      <point x="3" y="1" type="line"/>
      <point x="4" y="1" type="line"/>
      <point x="5" y="1" type="line"/>
      <point x="5" y="0" type="line"/>
      <point x="6" y="0" type="line"/>
      <point x="7" y="0" type="line"/>
      <point x="8" y="0" type="line"/>
      <point x="9" y="0" type="line"/>
      <point x="10" y="0" type="line"/>
      <point x="10" y="1" type="line"/>
      <point x="11" y="1" type="line"/>
      <point x="12" y="1" type="line"/>
      <point x="12" y="2" type="line"/>
      <point x="13" y="2" type="line"/>
      <point x="13" y="3" type="line"/>
      <point x="13" y="4" type="line"/>
      <point x="14" y="4" type="line"/>
      <point x="14" y="5" type="line"/>
      <point x="14" y="6" type="line"/>
      <point x="14" y="7" type="line"/>
      <point x="14" y="8" type="line"/>
      <point x="14" y="9" type="line"/>
      <point x="14" y="10" type="line"/>
      <point x="14" y="11" type="line"/>
      <point x="14" y="12" type="line"/>
      <point x="14" y="13" type="line"/>
      <point x="14" y="14" type="line"/>
      <point x="14" y="15" type="line"/>
      <point x="13" y="15" type="line"/>
      <point x="13" y="16" type="line"/>
      <point x="13" y="17" type="line"/>
      <point x="12" y="17" type="line"/>
      <point x="12" y="18" type="line"/>
      <point x="11" y="18" type="line"/>
      <point x="10" y="18" type="line"/>
      <point x="10" y="19" type="line"/>
      <point x="9" y="19" type="line"/>
      <point x="8" y="19" type="line"/>
      <point x="7" y="19" type="line"/>
    </contour>
    <contour>
      <point x="6" y="17" type="line"/>
      <point x="7" y="17" type="line"/>
      <point x="8" y="17" type="line"/>
      <point x="9" y="17" type="line"/>
      <point x="9" y="16" type="line"/>
      <point x="10" y="16" type="line"/>
      <point x="10" y="15" type="line"/>
      <point x="11" y="15" type="line"/>
      <point x="11" y="14" type="line"/>
      <point x="11" y="13" type="line"/>
      <point x="11" y="12" type="line"/>
      <point x="11" y="11" type="line"/>
      <point x="11" y="10" type="line"/>
      <point x="11" y="9" type="line"/>
      <point x="11" y="8" type="line"/>
      <point x="11" y="7" type="line"/>
      <point x="11" y="6" type="line"/>
      <point x="11" y="5" type="line"/>
      <point x="11" y="4" type="line"/>
      <point x="10" y="4" type="line"/>
      <point x="10" y="3" type="line"/>
      <point x="9" y="3" type="line"/>
      <point x="9" y="2" type="line"/>
      <point x="8" y="2" type="line"/>
      <point x="7" y="2" type="line"/>
      <point x="6" y="2" type="line"/>
      <point x="6" y="3" type="line"/>
      <point x="5" y="3" type="line"/>
      <point x="5" y="4" type="line"/>
      <point x="4" y="4" type="line"/>
      <point x="4" y="5" type="line"/>
      <point x="4" y="6" type="line"/>
      <point x="4" y="7" type="line"/>
      <point x="4" y="8" type="line"/>
      <point x="4" y="9" type="line"/>
      <point x="4" y="10" type="line"/>
      <point x="4" y="11" type="line"/>
      <point x="4" y="12" type="line"/>
      <point x="4" y="13" type="line"/>
      <point x="4" y="14" type="line"/>
      <point x="4" y="15" type="line"/>
      <point x="5" y="15" type="line"/>
      <point x="5" y="16" type="line"/>
      <point x="6" y="16" type="line"/>
    </contour>
  </outline>
</glyph>
<glyph name="less" format="2">
  <advance width="15"/>
    <unicode hex="003C"/>
  <outline>
    <contour>
      <point x="12" y="16" type="line"/>
      <point x="11" y="16" type="line"/>
      <point x="11" y="15" type="line"/>
      <point x="10" y="15" type="line"/>
      <point x="10" y="14" type="line"/>
      <point x="9" y="14" type="line"/>
      <point x="8" y="14" type="line"/>
      <point x="8" y="13" type="line"/>
      <point x="7" y="13" type="line"/>
      <point x="7" y="12" type="line"/>
      <point x="6" y="12" type="line"/>
      <point x="6" y="11" type="line"/>
      <point x="5" y="11" type="line"/>
      <point x="4" y="11" type="line"/>
      <point x="4" y="10" type="line"/>
      <point x="3" y="10" type="line"/>
      <point x="3" y="9" type="line"/>
      <point x="2" y="9" type="line"/>
      <point x="2" y="8" type="line"/>
      <point x="2" y="7" type="line"/>
      <point x="3" y="7" type="line"/>
      <point x="3" y="6" type="line"/>
      <point x="4" y="6" type="line"/>
      <point x="4" y="5" type="line"/>
      <point x="5" y="5" type="line"/>
      <point x="6" y="5" type="line"/>
      <point x="6" y="4" type="line"/>
      <point x="7" y="4" type="line"/>
      <point x="7" y="3" type="line"/>
      <point x="8" y="3" type="line"/>
      <point x="8" y="2" type="line"/>
      <point x="9" y="2" type="line"/>
      <point x="10" y="2" type="line"/>
      <point x="10" y="1" type="line"/>
      <point x="11" y="1" type="line"/>
      <point x="11" y="0" type="line"/>
      <point x="12" y="0" type="line"/>
      <point x="13" y="0" type="line"/>
      <point x="13" y="1" type="line"/>
      <point x="13" y="2" type="line"/>
      <point x="12" y="2" type="line"/>
      <point x="12" y="3" type="line"/>
      <point x="11" y="3" type="line"/>
      <point x="11" y="4" type="line"/>
      <point x="10" y="4" type="line"/>
      <point x="9" y="4" type="line"/>
      <point x="9" y="5" type="line"/>
      <point x="8" y="5" type="line"/>
      <point x="8" y="6" type="line"/>
      <point x="7" y="6" type="line"/>
      <point x="7" y="7" type="line"/>
      <point x="6" y="7" type="line"/>
      <point x="5" y="7" type="line"/>
      <point x="5" y="8" type="line"/>
      <point x="5" y="9" type="line"/>
      <point x="6" y="9" type="line"/>
      <point x="7" y="9" type="line"/>
      <point x="7" y="10" type="line"/>
      <point x="8" y="10" type="line"/>
      <point x="8" y="11" type="line"/>
      <point x="9" y="11" type="line"/>
      <point x="9" y="12" type="line"/>
      <point x="10" y="12" type="line"/>
      <point x="11" y="12" type="line"/>
      <point x="11" y="13" type="line"/>
      <point x="12" y="13" type="line"/>
      <point x="12" y="14" type="line"/>
      <point x="13" y="14" type="line"/>
      <point x="13" y="15" type="line"/>
      <point x="13" y="16" type="line"/>
    </contour>
  </outline>
</glyph>
<glyph name="equal" format="2">
  <advance width="14"/>
    <unicode hex="003D"/>
  <outline>
    <contour>
      <point x="3" y="11" type="line"/>
      <point x="2" y="11" type="line"/>
      <point x="2" y="10" type="line"/>
      <point x="2" y="9" type="line"/>
      <point x="3" y="9" type="line"/>
      <point x="4" y="9" type="line"/>
      <point x="5" y="9" type="line"/>
      <point x="6" y="9" type="line"/>
      <point x="7" y="9" type="line"/>
      <point x="8" y="9" type="line"/>
      <point x="9" y="9" type="line"/>
      <point x="10" y="9" type="line"/>
      <point x="11" y="9" type="line"/>
      <point x="12" y="9" type="line"/>
      <point x="12" y="10" type="line"/>
      <point x="12" y="11" type="line"/>
      <point x="11" y="11" type="line"/>
      <point x="10" y="11" type="line"/>
      <point x="9" y="11" type="line"/>
      <point x="8" y="11" type="line"/>
      <point x="7" y="11" type="line"/>
      <point x="6" y="11" type="line"/>
      <point x="5" y="11" type="line"/>
      <point x="4" y="11" type="line"/>
    </contour>
    <contour>
      <point x="3" y="5" type="line"/>
      <point x="2" y="5" type="line"/>
      <point x="2" y="4" type="line"/>
      <point x="2" y="3" type="line"/>
      <point x="3" y="3" type="line"/>
      <point x="3" y="4" type="line"/>
      <point x="4" y="4" type="line"/>
      <point x="4" y="3" type="line"/>
      <point x="5" y="3" type="line"/>
      <point x="6" y="3" type="line"/>
      <point x="7" y="3" type="line"/>
      <point x="8" y="3" type="line"/>
      <point x="9" y="3" type="line"/>
      <point x="10" y="3" type="line"/>
      <point x="11" y="3" type="line"/>
      <point x="12" y="3" type="line"/>
      <point x="12" y="4" type="line"/>
      <point x="12" y="5" type="line"/>
      <point x="11" y="5" type="line"/>
      <point x="10" y="5" type="line"/>
      <point x="9" y="5" type="line"/>
      <point x="8" y="5" type="line"/>
      <point x="7" y="5" type="line"/>
      <point x="6" y="5" type="line"/>
      <point x="5" y="5" type="line"/>
      <point x="4" y="5" type="line"/>
    </contour>
  </outline>
</glyph>
<glyph name="greater" format="2">
  <advance width="15"/>
    <unicode hex="003E"/>
  <outline>
    <contour>
      <point x="3" y="16" type="line"/>
      <point x="2" y="16" type="line"/>
      <point x="2" y="15" type="line"/>
      <point x="2" y="14" type="line"/>
      <point x="3" y="14" type="line"/>
      <point x="3" y="13" type="line"/>
      <point x="4" y="13" type="line"/>
      <point x="4" y="12" type="line"/>
      <point x="5" y="12" type="line"/>
      <point x="6" y="12" type="line"/>
      <point x="6" y="11" type="line"/>
      <point x="7" y="11" type="line"/>
      <point x="7" y="10" type="line"/>
      <point x="8" y="10" type="line"/>
      <point x="8" y="9" type="line"/>
      <point x="9" y="9" type="line"/>
      <point x="10" y="9" type="line"/>
      <point x="10" y="8" type="line"/>
      <point x="10" y="7" type="line"/>
      <point x="9" y="7" type="line"/>
      <point x="8" y="7" type="line"/>
      <point x="8" y="6" type="line"/>
      <point x="7" y="6" type="line"/>
      <point x="7" y="5" type="line"/>
      <point x="6" y="5" type="line"/>
      <point x="6" y="4" type="line"/>
      <point x="5" y="4" type="line"/>
      <point x="4" y="4" type="line"/>
      <point x="4" y="3" type="line"/>
      <point x="3" y="3" type="line"/>
      <point x="3" y="2" type="line"/>
      <point x="2" y="2" type="line"/>
      <point x="2" y="1" type="line"/>
      <point x="2" y="0" type="line"/>
      <point x="3" y="0" type="line"/>
      <point x="4" y="0" type="line"/>
      <point x="4" y="1" type="line"/>
      <point x="5" y="1" type="line"/>
      <point x="5" y="2" type="line"/>
      <point x="6" y="2" type="line"/>
      <point x="7" y="2" type="line"/>
      <point x="7" y="3" type="line"/>
      <point x="8" y="3" type="line"/>
      <point x="8" y="4" type="line"/>
      <point x="9" y="4" type="line"/>
      <point x="9" y="5" type="line"/>
      <point x="10" y="5" type="line"/>
      <point x="11" y="5" type="line"/>
      <point x="11" y="6" type="line"/>
      <point x="12" y="6" type="line"/>
      <point x="12" y="7" type="line"/>
      <point x="13" y="7" type="line"/>
      <point x="13" y="8" type="line"/>
      <point x="13" y="9" type="line"/>
      <point x="12" y="9" type="line"/>
      <point x="12" y="10" type="line"/>
      <point x="11" y="10" type="line"/>
      <point x="11" y="11" type="line"/>
      <point x="10" y="11" type="line"/>
      <point x="9" y="11" type="line"/>
      <point x="9" y="12" type="line"/>
      <point x="8" y="12" type="line"/>
      <point x="8" y="13" type="line"/>
      <point x="7" y="13" type="line"/>
      <point x="7" y="14" type="line"/>
      <point x="6" y="14" type="line"/>
      <point x="5" y="14" type="line"/>
      <point x="5" y="15" type="line"/>
      <point x="4" y="15" type="line"/>
      <point x="4" y="16" type="line"/>
    </contour>
  </outline>
</glyph>
<glyph name="B" format="2">
  <advance width="17"/>
    <unicode hex="0042"/>
  <outline>
    <contour>
      <point x="3" y="19" type="line"/>
      <point x="2" y="19" type="line"/>
      <point x="2" y="18" type="line"/>
      <point x="2" y="17" type="line"/>
      <point x="2" y="16" type="line"/>
      <point x="2" y="15" type="line"/>
      <point x="2" y="14" type="line"/>
      <point x="2" y="13" type="line"/>
      <point x="2" y="12" type="line"/>
      <point x="2" y="11" type="line"/>
      <point x="2" y="10" type="line"/>
      <point x="2" y="9" type="line"/>
      <point x="2" y="8" type="line"/>
      <point x="2" y="7" type="line"/>
      <point x="2" y="6" type="line"/>
      <point x="2" y="5" type="line"/>
      <point x="2" y="4" type="line"/>
      <point x="2" y="3" type="line"/>
      <point x="2" y="2" type="line"/>
      <point x="2" y="1" type="line"/>
      <point x="2" y="0" type="line"/>
      <point x="3" y="0" type="line"/>
      <point x="4" y="0" type="line"/>
      <point x="5" y="0" type="line"/>
      <point x="6" y="0" type="line"/>
      <point x="7" y="0" type="line"/>
      <point x="8" y="0" type="line"/>
      <point x="9" y="0" type="line"/>
      <point x="10" y="0" type="line"/>
      <point x="11" y="0" type="line"/>
      <point x="12" y="0" type="line"/>
      <point x="13" y="0" type="line"/>
      <point x="13" y="1" type="line"/>
      <point x="14" y="1" type="line"/>
      <point x="14" y="2" type="line"/>
      <point x="14" y="3" type="line"/>
      <point x="14" y="4" type="line"/>
      <point x="14" y="5" type="line"/>
      <point x="14" y="6" type="line"/>
      <point x="14" y="7" type="line"/>
      <point x="14" y="8" type="line"/>
      <point x="14" y="9" type="line"/>
      <point x="13" y="9" type="line"/>
      <point x="12" y="9" type="line"/>
      <point x="12" y="8" type="line"/>
      <point x="13" y="8" type="line"/>
      <point x="13" y="7" type="line"/>
      <point x="13" y="6" type="line"/>
      <point x="13" y="5" type="line"/>
      <point x="13" y="4" type="line"/>
      <point x="13" y="3" type="line"/>
      <point x="12" y="3" type="line"/>
      <point x="12" y="2" type="line"/>
      <point x="11" y="2" type="line"/>
      <point x="10" y="2" type="line"/>
      <point x="9" y="2" type="line"/>
      <point x="8" y="2" type="line"/>
      <point x="7" y="2" type="line"/>
      <point x="6" y="2" type="line"/>
      <point x="5" y="2" type="line"/>
      <point x="5" y="3" type="line"/>
      <point x="5" y="4" type="line"/>
      <point x="5" y="5" type="line"/>
      <point x="5" y="6" type="line"/>
      <point x="5" y="7" type="line"/>
      <point x="5" y="8" type="line"/>
      <point x="5" y="9" type="line"/>
      <point x="6" y="9" type="line"/>
      <point x="7" y="9" type="line"/>
      <point x="8" y="9" type="line"/>
      <point x="9" y="9" type="line"/>
      <point x="10" y="9" type="line"/>
      <point x="11" y="9" type="line"/>
      <point x="12" y="9" type="line"/>
      <point x="12" y="10" type="line"/>
      <point x="13" y="10" type="line"/>
      <point x="13" y="11" type="line"/>
      <point x="14" y="11" type="line"/>
      <point x="14" y="12" type="line"/>
      <point x="14" y="13" type="line"/>
      <point x="14" y="14" type="line"/>
      <point x="14" y="15" type="line"/>
      <point x="14" y="16" type="line"/>
      <point x="14" y="17" type="line"/>
      <point x="14" y="18" type="line"/>
      <point x="13" y="18" type="line"/>
      <point x="12" y="18" type="line"/>
      <point x="12" y="19" type="line"/>
      <point x="11" y="19" type="line"/>
      <point x="10" y="19" type="line"/>
      <point x="9" y="19" type="line"/>
      <point x="8" y="19" type="line"/>
      <point x="7" y="19" type="line"/>
      <point x="6" y="19" type="line"/>
      <point x="5" y="19" type="line"/>
      <point x="4" y="19" type="line"/>
    </contour>
    <contour>
      <point x="5" y="17" type="line"/>
      <point x="6" y="17" type="line"/>
      <point x="7" y="17" type="line"/>
      <point x="8" y="17" type="line"/>
      <point x="9" y="17" type="line"/>
      <point x="10" y="17" type="line"/>
      <point x="11" y="17" type="line"/>
      <point x="11" y="16" type="line"/>
      <point x="12" y="16" type="line"/>
      <point x="12" y="15" type="line"/>
      <point x="12" y="14" type="line"/>
      <point x="12" y="13" type="line"/>
      <point x="12" y="12" type="line"/>
      <point x="11" y="12" type="line"/>
      <point x="11" y="11" type="line"/>
      <point x="10" y="11" type="line"/>
      <point x="9" y="11" type="line"/>
      <point x="8" y="11" type="line"/>
      <point x="7" y="11" type="line"/>
      <point x="6" y="11" type="line"/>
      <point x="5" y="11" type="line"/>
      <point x="5" y="12" type="line"/>
      <point x="5" y="13" type="line"/>
      <point x="5" y="14" type="line"/>
      <point x="5" y="15" type="line"/>
      <point x="5" y="16" type="line"/>
    </contour>
  </outline>
</glyph>
<glyph name="X" format="2">
  <advance width="16"/>
    <unicode hex="0058"/>
  <outline>
    <contour>
      <point x="2" y="19" type="line"/>
      <point x="1" y="19" type="line"/>
      <point x="1" y="18" type="line"/>
      <point x="1" y="17" type="line"/>
      <point x="2" y="17" type="line"/>
      <point x="2" y="16" type="line"/>
      <point x="2" y="15" type="line"/>
      <point x="3" y="15" type="line"/>
      <point x="3" y="14" type="line"/>
      <point x="4" y="14" type="line"/>
      <point x="4" y="13" type="line"/>
      <point x="4" y="12" type="line"/>
      <point x="5" y="12" type="line"/>
      <point x="5" y="11" type="line"/>
      <point x="5" y="10" type="line"/>
      <point x="6" y="10" type="line"/>
      <point x="6" y="9" type="line"/>
      <point x="5" y="9" type="line"/>
      <point x="5" y="8" type="line"/>
      <point x="5" y="7" type="line"/>
      <point x="4" y="7" type="line"/>
      <point x="4" y="6" type="line"/>
      <point x="4" y="5" type="line"/>
      <point x="3" y="5" type="line"/>
      <point x="3" y="4" type="line"/>
      <point x="2" y="4" type="line"/>
      <point x="2" y="3" type="line"/>
      <point x="2" y="2" type="line"/>
      <point x="1" y="2" type="line"/>
      <point x="1" y="1" type="line"/>
      <point x="1" y="0" type="line"/>
      <point x="2" y="0" type="line"/>
      <point x="3" y="0" type="line"/>
      <point x="4" y="0" type="line"/>
      <point x="4" y="1" type="line"/>
      <point x="4" y="2" type="line"/>
      <point x="5" y="2" type="line"/>
      <point x="5" y="3" type="line"/>
      <point x="5" y="4" type="line"/>
      <point x="6" y="4" type="line"/>
      <point x="6" y="5" type="line"/>
      <point x="6" y="6" type="line"/>
      <point x="7" y="6" type="line"/>
      <point x="7" y="7" type="line"/>
      <point x="7" y="8" type="line"/>
      <point x="8" y="8" type="line"/>
      <point x="9" y="8" type="line"/>
      <point x="9" y="7" type="line"/>
      <point x="9" y="6" type="line"/>
      <point x="10" y="6" type="line"/>
      <point x="10" y="5" type="line"/>
      <point x="10" y="4" type="line"/>
      <point x="11" y="4" type="line"/>
      <point x="11" y="3" type="line"/>
      <point x="11" y="2" type="line"/>
      <point x="12" y="2" type="line"/>
      <point x="12" y="1" type="line"/>
      <point x="12" y="0" type="line"/>
      <point x="13" y="0" type="line"/>
      <point x="14" y="0" type="line"/>
      <point x="15" y="0" type="line"/>
      <point x="15" y="1" type="line"/>
      <point x="15" y="2" type="line"/>
      <point x="14" y="2" type="line"/>
      <point x="14" y="3" type="line"/>
      <point x="14" y="4" type="line"/>
      <point x="13" y="4" type="line"/>
      <point x="13" y="5" type="line"/>
      <point x="12" y="5" type="line"/>
      <point x="12" y="6" type="line"/>
      <point x="12" y="7" type="line"/>
      <point x="11" y="7" type="line"/>
      <point x="11" y="8" type="line"/>
      <point x="11" y="9" type="line"/>
      <point x="10" y="9" type="line"/>
      <point x="10" y="10" type="line"/>
      <point x="11" y="10" type="line"/>
      <point x="11" y="11" type="line"/>
      <point x="11" y="12" type="line"/>
      <point x="12" y="12" type="line"/>
      <point x="12" y="13" type="line"/>
      <point x="12" y="14" type="line"/>
      <point x="13" y="14" type="line"/>
      <point x="13" y="15" type="line"/>
      <point x="14" y="15" type="line"/>
      <point x="14" y="16" type="line"/>
      <point x="14" y="17" type="line"/>
      <point x="15" y="17" type="line"/>
      <point x="15" y="18" type="line"/>
      <point x="15" y="19" type="line"/>
      <point x="14" y="19" type="line"/>
      <point x="13" y="19" type="line"/>
      <point x="12" y="19" type="line"/>
      <point x="12" y="18" type="line"/>
      <point x="12" y="17" type="line"/>
      <point x="11" y="17" type="line"/>
      <point x="11" y="16" type="line"/>
      <point x="11" y="15" type="line"/>
      <point x="10" y="15" type="line"/>
      <point x="10" y="14" type="line"/>
      <point x="10" y="13" type="line"/>
      <point x="9" y="13" type="line"/>
      <point x="9" y="12" type="line"/>
      <point x="9" y="11" type="line"/>
      <point x="8" y="11" type="line"/>
      <point x="7" y="11" type="line"/>
      <point x="7" y="12" type="line"/>
      <point x="7" y="13" type="line"/>
      <point x="6" y="13" type="line"/>
      <point x="6" y="14" type="line"/>
      <point x="6" y="15" type="line"/>
      <point x="5" y="15" type="line"/>
      <point x="5" y="16" type="line"/>
      <point x="5" y="17" type="line"/>
      <point x="4" y="17" type="line"/>
      <point x="4" y="18" type="line"/>
      <point x="4" y="19" type="line"/>
      <point x="3" y="19" type="line"/>
    </contour>
  </outline>
</glyph>
<glyph name="bracketright" format="2">
  <advance width="12"/>
    <unicode hex="005D"/>
  <outline>
    <contour>
      <point x="2" y="20" type="line"/>
      <point x="1" y="20" type="line"/>
      <point x="1" y="19" type="line"/>
      <point x="1" y="18" type="line"/>
      <point x="2" y="18" type="line"/>
      <point x="3" y="18" type="line"/>
      <point x="4" y="18" type="line"/>
      <point x="5" y="18" type="line"/>
      <point x="6" y="18" type="line"/>
      <point x="7" y="18" type="line"/>
      <point x="7" y="17" type="line"/>
      <point x="7" y="16" type="line"/>
      <point x="7" y="15" type="line"/>
      <point x="7" y="14" type="line"/>
      <point x="7" y="13" type="line"/>
      <point x="7" y="12" type="line"/>
      <point x="7" y="11" type="line"/>
      <point x="7" y="10" type="line"/>
      <point x="7" y="9" type="line"/>
      <point x="7" y="8" type="line"/>
      <point x="7" y="7" type="line"/>
      <point x="7" y="6" type="line"/>
      <point x="7" y="5" type="line"/>
      <point x="7" y="4" type="line"/>
      <point x="7" y="3" type="line"/>
      <point x="7" y="2" type="line"/>
      <point x="7" y="1" type="line"/>
      <point x="7" y="0" type="line"/>
      <point x="7" y="-1" type="line"/>
      <point x="7" y="-2" type="line"/>
      <point x="7" y="-3" type="line"/>
      <point x="6" y="-3" type="line"/>
      <point x="5" y="-3" type="line"/>
      <point x="4" y="-3" type="line"/>
      <point x="3" y="-3" type="line"/>
      <point x="2" y="-3" type="line"/>
      <point x="1" y="-3" type="line"/>
      <point x="1" y="-4" type="line"/>
      <point x="1" y="-5" type="line"/>
      <point x="2" y="-5" type="line"/>
      <point x="3" y="-5" type="line"/>
      <point x="4" y="-5" type="line"/>
      <point x="5" y="-5" type="line"/>
      <point x="6" y="-5" type="line"/>
      <point x="7" y="-5" type="line"/>
      <point x="8" y="-5" type="line"/>
      <point x="9" y="-5" type="line"/>
      <point x="10" y="-5" type="line"/>
      <point x="10" y="-4" type="line"/>
      <point x="10" y="-3" type="line"/>
      <point x="10" y="-2" type="line"/>
      <point x="10" y="-1" type="line"/>
      <point x="10" y="0" type="line"/>
      <point x="10" y="1" type="line"/>
      <point x="10" y="2" type="line"/>
      <point x="10" y="3" type="line"/>
      <point x="10" y="4" type="line"/>
      <point x="10" y="5" type="line"/>
      <point x="10" y="6" type="line"/>
      <point x="10" y="7" type="line"/>
      <point x="10" y="8" type="line"/>
      <point x="10" y="9" type="line"/>
      <point x="10" y="10" type="line"/>
      <point x="10" y="11" type="line"/>
      <point x="10" y="12" type="line"/>
      <point x="10" y="13" type="line"/>
      <point x="10" y="14" type="line"/>
      <point x="10" y="15" type="line"/>
      <point x="10" y="16" type="line"/>
      <point x="10" y="17" type="line"/>
      <point x="10" y="18" type="line"/>
      <point x="10" y="19" type="line"/>
      <point x="10" y="20" type="line"/>
      <point x="9" y="20" type="line"/>
      <point x="8" y="20" type="line"/>
      <point x="7" y="20" type="line"/>
      <point x="6" y="20" type="line"/>
      <point x="5" y="20" type="line"/>
      <point x="4" y="20" type="line"/>
      <point x="3" y="20" type="line"/>
    </contour>
  </outline>
</glyph>
<glyph name="grave" format="2">
  <advance width="8"/>
    <unicode hex="0060"/>
  <outline>
    <contour>
      <point x="1" y="19" type="line"/>
      <point x="2" y="19" type="line"/>
      <point x="2" y="18" type="line"/>
      <point x="3" y="18" type="line"/>
      <point x="3" y="17" type="line"/>
      <point x="4" y="17" type="line"/>
      <point x="4" y="16" type="line"/>
      <point x="5" y="16" type="line"/>
      <point x="5" y="15" type="line"/>
      <point x="6" y="15" type="line"/>
      <point x="6" y="14" type="line"/>
      <point x="7" y="14" type="line"/>
      <point x="8" y="14" type="line"/>
      <point x="8" y="15" type="line"/>
      <point x="7" y="15" type="line"/>
      <point x="7" y="16" type="line"/>
      <point x="6" y="16" type="line"/>
      <point x="6" y="17" type="line"/>
      <point x="6" y="18" type="line"/>
      <point x="5" y="18" type="line"/>
      <point x="5" y="19" type="line"/>
      <point x="4" y="19" type="line"/>
      <point x="4" y="20" type="line"/>
      <point x="3" y="20" type="line"/>
      <point x="2" y="20" type="line"/>
      <point x="1" y="20" type="line"/>
    </contour>
  </outline>
</glyph>
<glyph name="e" format="2">
  <advance width="14"/>
    <unicode hex="0065"/>
  <outline>
    <contour>
      <point x="6" y="14" type="line"/>
      <point x="5" y="14" type="line"/>
      <point x="5" y="13" type="line"/>
      <point x="4" y="13" type="line"/>
      <point x="4" y="12" type="line"/>
      <point x="3" y="12" type="line"/>
      <point x="2" y="12" type="line"/>
      <point x="2" y="11" type="line"/>
      <point x="2" y="10" type="line"/>
      <point x="1" y="10" type="line"/>
      <point x="1" y="9" type="line"/>
      <point x="1" y="8" type="line"/>
      <point x="1" y="7" type="line"/>
      <point x="1" y="6" type="line"/>
      <point x="1" y="5" type="line"/>
      <point x="1" y="4" type="line"/>
      <point x="2" y="4" type="line"/>
      <point x="2" y="3" type="line"/>
      <point x="2" y="2" type="line"/>
      <point x="3" y="2" type="line"/>
      <point x="3" y="1" type="line"/>
      <point x="4" y="1" type="line"/>
      <point x="5" y="1" type="line"/>
      <point x="5" y="0" type="line"/>
      <point x="6" y="0" type="line"/>
      <point x="7" y="0" type="line"/>
      <point x="8" y="0" type="line"/>
      <point x="9" y="0" type="line"/>
      <point x="10" y="0" type="line"/>
      <point x="10" y="1" type="line"/>
      <point x="11" y="1" type="line"/>
      <point x="12" y="1" type="line"/>
      <point x="12" y="2" type="line"/>
      <point x="13" y="2" type="line"/>
      <point x="13" y="3" type="line"/>
      <point x="13" y="4" type="line"/>
      <point x="12" y="4" type="line"/>
      <point x="11" y="4" type="line"/>
      <point x="10" y="4" type="line"/>
      <point x="10" y="3" type="line"/>
      <point x="9" y="3" type="line"/>
      <point x="9" y="2" type="line"/>
      <point x="8" y="2" type="line"/>
      <point x="7" y="2" type="line"/>
      <point x="6" y="2" type="line"/>
      <point x="6" y="3" type="line"/>
      <point x="5" y="3" type="line"/>
      <point x="5" y="4" type="line"/>
      <point x="4" y="4" type="line"/>
      <point x="4" y="5" type="line"/>
      <point x="4" y="6" type="line"/>
      <point x="5" y="6" type="line"/>
      <point x="6" y="6" type="line"/>
      <point x="7" y="6" type="line"/>
      <point x="8" y="6" type="line"/>
      <point x="9" y="6" type="line"/>
      <point x="10" y="6" type="line"/>
      <point x="11" y="6" type="line"/>
      <point x="12" y="6" type="line"/>
      <point x="13" y="6" type="line"/>
      <point x="13" y="7" type="line"/>
      <point x="13" y="8" type="line"/>
      <point x="13" y="9" type="line"/>
      <point x="13" y="10" type="line"/>
      <point x="12" y="10" type="line"/>
      <point x="12" y="11" type="line"/>
      <point x="12" y="12" type="line"/>
      <point x="11" y="12" type="line"/>
      <point x="11" y="13" type="line"/>
      <point x="10" y="13" type="line"/>
      <point x="9" y="13" type="line"/>
      <point x="9" y="14" type="line"/>
      <point x="8" y="14" type="line"/>
      <point x="7" y="14" type="line"/>
    </contour>
    <contour>
      <point x="6" y="12" type="line"/>
      <point x="7" y="12" type="line"/>
      <point x="8" y="12" type="line"/>
      <point x="8" y="11" type="line"/>
      <point x="9" y="11" type="line"/>
      <point x="9" y="10" type="line"/>
      <point x="10" y="10" type="line"/>
      <point x="10" y="9" type="line"/>
      <point x="10" y="8" type="line"/>
      <point x="9" y="8" type="line"/>
      <point x="8" y="8" type="line"/>
      <point x="7" y="8" type="line"/>
      <point x="6" y="8" type="line"/>
      <point x="5" y="8" type="line"/>
      <point x="4" y="8" type="line"/>
      <point x="4" y="9" type="line"/>
      <point x="4" y="10" type="line"/>
      <point x="5" y="10" type="line"/>
      <point x="5" y="11" type="line"/>
      <point x="6" y="11" type="line"/>
    </contour>
  </outline>
</glyph>
<glyph name="m" format="2">
  <advance width="23"/>
    <unicode hex="006D"/>
  <outline>
    <contour>
      <point x="3" y="14" type="line"/>
      <point x="2" y="14" type="line"/>
      <point x="2" y="13" type="line"/>
      <point x="2" y="12" type="line"/>
      <point x="2" y="11" type="line"/>
      <point x="2" y="10" type="line"/>
      <point x="2" y="9" type="line"/>
      <point x="2" y="8" type="line"/>
      <point x="2" y="7" type="line"/>
      <point x="2" y="6" type="line"/>
      <point x="2" y="5" type="line"/>
      <point x="2" y="4" type="line"/>
      <point x="2" y="3" type="line"/>
      <point x="2" y="2" type="line"/>
      <point x="2" y="1" type="line"/>
      <point x="2" y="0" type="line"/>
      <point x="3" y="0" type="line"/>
      <point x="4" y="0" type="line"/>
      <point x="5" y="0" type="line"/>
      <point x="5" y="1" type="line"/>
      <point x="5" y="2" type="line"/>
      <point x="5" y="3" type="line"/>
      <point x="5" y="4" type="line"/>
      <point x="5" y="5" type="line"/>
      <point x="5" y="6" type="line"/>
      <point x="5" y="7" type="line"/>
      <point x="5" y="8" type="line"/>
      <point x="5" y="9" type="line"/>
      <point x="6" y="9" type="line"/>
      <point x="6" y="10" type="line"/>
      <point x="6" y="11" type="line"/>
      <point x="7" y="11" type="line"/>
      <point x="7" y="12" type="line"/>
      <point x="8" y="12" type="line"/>
      <point x="9" y="12" type="line"/>
      <point x="9" y="11" type="line"/>
      <point x="10" y="11" type="line"/>
      <point x="10" y="10" type="line"/>
      <point x="10" y="9" type="line"/>
      <point x="10" y="8" type="line"/>
      <point x="10" y="7" type="line"/>
      <point x="10" y="6" type="line"/>
      <point x="10" y="5" type="line"/>
      <point x="10" y="4" type="line"/>
      <point x="10" y="3" type="line"/>
      <point x="10" y="2" type="line"/>
      <point x="10" y="1" type="line"/>
      <point x="10" y="0" type="line"/>
      <point x="11" y="0" type="line"/>
      <point x="12" y="0" type="line"/>
      <point x="13" y="0" type="line"/>
      <point x="13" y="1" type="line"/>
      <point x="13" y="2" type="line"/>
      <point x="13" y="3" type="line"/>
      <point x="13" y="4" type="line"/>
      <point x="13" y="5" type="line"/>
      <point x="13" y="6" type="line"/>
      <point x="13" y="7" type="line"/>
      <point x="13" y="8" type="line"/>
      <point x="13" y="9" type="line"/>
      <point x="14" y="9" type="line"/>
      <point x="14" y="10" type="line"/>
      <point x="14" y="11" type="line"/>
      <point x="15" y="11" type="line"/>
      <point x="15" y="12" type="line"/>
      <point x="16" y="12" type="line"/>
      <point x="17" y="12" type="line"/>
      <point x="17" y="11" type="line"/>
      <point x="18" y="11" type="line"/>
      <point x="18" y="10" type="line"/>
      <point x="18" y="9" type="line"/>
      <point x="18" y="8" type="line"/>
      <point x="18" y="7" type="line"/>
      <point x="18" y="6" type="line"/>
      <point x="18" y="5" type="line"/>
      <point x="18" y="4" type="line"/>
      <point x="18" y="3" type="line"/>
      <point x="18" y="2" type="line"/>
      <point x="18" y="1" type="line"/>
      <point x="18" y="0" type="line"/>
      <point x="19" y="0" type="line"/>
      <point x="20" y="0" type="line"/>
      <point x="21" y="0" type="line"/>
      <point x="21" y="1" type="line"/>
      <point x="21" y="2" type="line"/>
      <point x="21" y="3" type="line"/>
      <point x="21" y="4" type="line"/>
      <point x="21" y="5" type="line"/>
      <point x="21" y="6" type="line"/>
      <point x="21" y="7" type="line"/>
      <point x="21" y="8" type="line"/>
      <point x="21" y="9" type="line"/>
      <point x="21" y="10" type="line"/>
      <point x="21" y="11" type="line"/>
      <point x="21" y="12" type="line"/>
      <point x="20" y="12" type="line"/>
      <point x="20" y="13" type="line"/>
      <point x="19" y="13" type="line"/>
      <point x="19" y="14" type="line"/>
      <point x="18" y="14" type="line"/>
      <point x="17" y="14" type="line"/>
      <point x="16" y="14" type="line"/>
      <point x="15" y="14" type="line"/>
      <point x="15" y="13" type="line"/>
      <point x="14" y="13" type="line"/>
      <point x="14" y="12" type="line"/>
      <point x="13" y="12" type="line"/>
      <point x="12" y="12" type="line"/>
      <point x="12" y="13" type="line"/>
      <point x="11" y="13" type="line"/>
      <point x="11" y="14" type="line"/>
      <point x="10" y="14" type="line"/>
      <point x="9" y="14" type="line"/>
      <point x="8" y="14" type="line"/>
      <point x="7" y="14" type="line"/>
      <point x="7" y="13" type="line"/>
      <point x="6" y="13" type="line"/>
      <point x="6" y="12" type="line"/>
      <point x="5" y="12" type="line"/>
      <point x="5" y="13" type="line"/>
      <point x="5" y="14" type="line"/>
      <point x="4" y="14" type="line"/>
    </contour>
  </outline>
</glyph>
<glyph name="q" format="2">
  <advance width="16"/>
    <unicode hex="0071"/>
  <outline>
    <contour>
      <point x="4" y="14" type="line"/>
      <point x="3" y="14" type="line"/>
      <point x="3" y="13" type="line"/>
      <point x="2" y="13" type="line"/>
      <point x="2" y="12" type="line"/>
      <point x="2" y="11" type="line"/>
      <point x="1" y="11" type="line"/>
      <point x="1" y="10" type="line"/>
      <point x="1" y="9" type="line"/>
      <point x="1" y="8" type="line"/>
      <point x="1" y="7" type="line"/>
      <point x="1" y="6" type="line"/>
      <point x="1" y="5" type="line"/>
      <point x="1" y="4" type="line"/>
      <point x="1" y="3" type="line"/>
      <point x="2" y="3" type="line"/>
      <point x="2" y="2" type="line"/>
      <point x="2" y="1" type="line"/>
      <point x="3" y="1" type="line"/>
      <point x="3" y="0" type="line"/>
      <point x="4" y="0" type="line"/>
      <point x="5" y="0" type="line"/>
      <point x="6" y="0" type="line"/>
      <point x="7" y="0" type="line"/>
      <point x="8" y="0" type="line"/>
      <point x="9" y="0" type="line"/>
      <point x="9" y="1" type="line"/>
      <point x="10" y="1" type="line"/>
      <point x="10" y="2" type="line"/>
      <point x="11" y="2" type="line"/>
      <point x="11" y="1" type="line"/>
      <point x="11" y="0" type="line"/>
      <point x="11" y="-1" type="line"/>
      <point x="11" y="-2" type="line"/>
      <point x="11" y="-3" type="line"/>
      <point x="11" y="-4" type="line"/>
      <point x="11" y="-5" type="line"/>
      <point x="11" y="-6" type="line"/>
      <point x="12" y="-6" type="line"/>
      <point x="13" y="-6" type="line"/>
      <point x="14" y="-6" type="line"/>
      <point x="14" y="-5" type="line"/>
      <point x="14" y="-4" type="line"/>
      <point x="14" y="-3" type="line"/>
      <point x="14" y="-2" type="line"/>
      <point x="14" y="-1" type="line"/>
      <point x="14" y="0" type="line"/>
      <point x="14" y="1" type="line"/>
      <point x="14" y="2" type="line"/>
      <point x="14" y="3" type="line"/>
      <point x="14" y="4" type="line"/>
      <point x="14" y="5" type="line"/>
      <point x="14" y="6" type="line"/>
      <point x="14" y="7" type="line"/>
      <point x="14" y="8" type="line"/>
      <point x="14" y="9" type="line"/>
      <point x="14" y="10" type="line"/>
      <point x="14" y="11" type="line"/>
      <point x="14" y="12" type="line"/>
      <point x="14" y="13" type="line"/>
      <point x="14" y="14" type="line"/>
      <point x="13" y="14" type="line"/>
      <point x="12" y="14" type="line"/>
      <point x="11" y="14" type="line"/>
      <point x="11" y="13" type="line"/>
      <point x="11" y="12" type="line"/>
      <point x="10" y="12" type="line"/>
      <point x="10" y="13" type="line"/>
      <point x="9" y="13" type="line"/>
      <point x="9" y="14" type="line"/>
      <point x="8" y="14" type="line"/>
      <point x="7" y="14" type="line"/>
      <point x="6" y="14" type="line"/>
      <point x="5" y="14" type="line"/>
    </contour>
    <contour>
      <point x="5" y="12" type="line"/>
      <point x="6" y="12" type="line"/>
      <point x="7" y="12" type="line"/>
      <point x="8" y="12" type="line"/>
      <point x="9" y="12" type="line"/>
      <point x="9" y="11" type="line"/>
      <point x="10" y="11" type="line"/>
      <point x="10" y="10" type="line"/>
      <point x="10" y="9" type="line"/>
      <point x="11" y="9" type="line"/>
      <point x="11" y="8" type="line"/>
      <point x="11" y="7" type="line"/>
      <point x="11" y="6" type="line"/>
      <point x="11" y="5" type="line"/>
      <point x="10" y="5" type="line"/>
      <point x="10" y="4" type="line"/>
      <point x="10" y="3" type="line"/>
      <point x="9" y="3" type="line"/>
      <point x="9" y="2" type="line"/>
      <point x="8" y="2" type="line"/>
      <point x="7" y="2" type="line"/>
      <point x="6" y="2" type="line"/>
      <point x="5" y="2" type="line"/>
      <point x="5" y="3" type="line"/>
      <point x="4" y="3" type="line"/>
      <point x="4" y="4" type="line"/>
      <point x="4" y="5" type="line"/>
      <point x="4" y="6" type="line"/>
      <point x="4" y="7" type="line"/>
      <point x="4" y="8" type="line"/>
      <point x="4" y="9" type="line"/>
      <point x="4" y="10" type="line"/>
      <point x="4" y="11" type="line"/>
      <point x="5" y="11" type="line"/>
    </contour>
  </outline>
</glyph>
<glyph name="x" format="2">
  <advance width="14"/>
    <unicode hex="0078"/>
  <outline>
    <contour>
      <point x="2" y="14" type="line"/>
      <point x="1" y="14" type="line"/>
      <point x="1" y="13" type="line"/>
      <point x="1" y="12" type="line"/>
      <point x="2" y="12" type="line"/>
      <point x="2" y="11" type="line"/>
      <point x="3" y="11" type="line"/>
      <point x="3" y="10" type="line"/>
      <point x="3" y="9" type="line"/>
      <point x="4" y="9" type="line"/>
      <point x="4" y="8" type="line"/>
      <point x="5" y="8" type="line"/>
      <point x="5" y="7" type="line"/>
      <point x="5" y="6" type="line"/>
      <point x="4" y="6" type="line"/>
      <point x="4" y="5" type="line"/>
      <point x="4" y="4" type="line"/>
      <point x="3" y="4" type="line"/>
      <point x="3" y="3" type="line"/>
      <point x="2" y="3" type="line"/>
      <point x="2" y="2" type="line"/>
      <point x="1" y="2" type="line"/>
      <point x="1" y="1" type="line"/>
      <point x="1" y="0" type="line"/>
      <point x="2" y="0" type="line"/>
      <point x="3" y="0" type="line"/>
      <point x="4" y="0" type="line"/>
      <point x="4" y="1" type="line"/>
      <point x="4" y="2" type="line"/>
      <point x="5" y="2" type="line"/>
      <point x="5" y="3" type="line"/>
      <point x="6" y="3" type="line"/>
      <point x="6" y="4" type="line"/>
      <point x="6" y="5" type="line"/>
      <point x="7" y="5" type="line"/>
      <point x="8" y="5" type="line"/>
      <point x="8" y="4" type="line"/>
      <point x="8" y="3" type="line"/>
      <point x="9" y="3" type="line"/>
      <point x="9" y="2" type="line"/>
      <point x="10" y="2" type="line"/>
      <point x="10" y="1" type="line"/>
      <point x="10" y="0" type="line"/>
      <point x="11" y="0" type="line"/>
      <point x="12" y="0" type="line"/>
      <point x="13" y="0" type="line"/>
      <point x="13" y="1" type="line"/>
      <point x="13" y="2" type="line"/>
      <point x="12" y="2" type="line"/>
      <point x="12" y="3" type="line"/>
      <point x="11" y="3" type="line"/>
      <point x="11" y="4" type="line"/>
      <point x="11" y="5" type="line"/>
      <point x="10" y="5" type="line"/>
      <point x="10" y="6" type="line"/>
      <point x="9" y="6" type="line"/>
      <point x="9" y="7" type="line"/>
      <point x="9" y="8" type="line"/>
      <point x="10" y="8" type="line"/>
      <point x="10" y="9" type="line"/>
      <point x="11" y="9" type="line"/>
      <point x="11" y="10" type="line"/>
      <point x="11" y="11" type="line"/>
      <point x="12" y="11" type="line"/>
      <point x="12" y="12" type="line"/>
      <point x="13" y="12" type="line"/>
      <point x="13" y="13" type="line"/>
      <point x="13" y="14" type="line"/>
      <point x="12" y="14" type="line"/>
      <point x="11" y="14" type="line"/>
      <point x="10" y="14" type="line"/>
      <point x="10" y="13" type="line"/>
      <point x="10" y="12" type="line"/>
      <point x="9" y="12" type="line"/>
      <point x="9" y="11" type="line"/>
      <point x="8" y="11" type="line"/>
      <point x="8" y="10" type="line"/>
      <point x="8" y="9" type="line"/>
      <point x="7" y="9" type="line"/>
      <point x="6" y="9" type="line"/>
      <point x="6" y="10" type="line"/>
      <point x="6" y="11" type="line"/>
      <point x="5" y="11" type="line"/>
      <point x="5" y="12" type="line"/>
      <point x="4" y="12" type="line"/>
      <point x="4" y="13" type="line"/>
      <point x="4" y="14" type="line"/>
      <point x="3" y="14" type="line"/>
    </contour>
  </outline>
</glyph>
<glyph name="braceright" format="2">
  <advance width="12"/>
    <unicode hex="007D"/>
  <outline>
    <contour>
      <point x="3" y="20" type="line"/>
      <point x="2" y="20" type="line"/>
      <point x="2" y="19" type="line"/>
      <point x="2" y="18" type="line"/>
      <point x="1" y="18" type="line"/>
      <point x="1" y="17" type="line"/>
      <point x="1" y="16" type="line"/>
      <point x="2" y="16" type="line"/>
      <point x="3" y="16" type="line"/>
      <point x="4" y="16" type="line"/>
      <point x="4" y="17" type="line"/>
      <point x="4" y="18" type="line"/>
      <point x="5" y="18" type="line"/>
      <point x="5" y="17" type="line"/>
      <point x="6" y="17" type="line"/>
      <point x="6" y="16" type="line"/>
      <point x="6" y="15" type="line"/>
      <point x="6" y="14" type="line"/>
      <point x="6" y="13" type="line"/>
      <point x="5" y="13" type="line"/>
      <point x="5" y="12" type="line"/>
      <point x="5" y="11" type="line"/>
      <point x="4" y="11" type="line"/>
      <point x="4" y="10" type="line"/>
      <point x="4" y="9" type="line"/>
      <point x="4" y="8" type="line"/>
      <point x="5" y="8" type="line"/>
      <point x="5" y="7" type="line"/>
      <point x="4" y="7" type="line"/>
      <point x="4" y="6" type="line"/>
      <point x="4" y="5" type="line"/>
      <point x="4" y="4" type="line"/>
      <point x="5" y="4" type="line"/>
      <point x="5" y="3" type="line"/>
      <point x="5" y="2" type="line"/>
      <point x="6" y="2" type="line"/>
      <point x="6" y="1" type="line"/>
      <point x="6" y="0" type="line"/>
      <point x="6" y="-1" type="line"/>
      <point x="6" y="-2" type="line"/>
      <point x="5" y="-2" type="line"/>
      <point x="5" y="-3" type="line"/>
      <point x="4" y="-3" type="line"/>
      <point x="4" y="-2" type="line"/>
      <point x="4" y="-1" type="line"/>
      <point x="3" y="-1" type="line"/>
      <point x="2" y="-1" type="line"/>
      <point x="1" y="-1" type="line"/>
      <point x="1" y="-2" type="line"/>
      <point x="1" y="-3" type="line"/>
      <point x="2" y="-3" type="line"/>
      <point x="2" y="-4" type="line"/>
      <point x="2" y="-5" type="line"/>
      <point x="3" y="-5" type="line"/>
      <point x="4" y="-5" type="line"/>
      <point x="5" y="-5" type="line"/>
      <point x="6" y="-5" type="line"/>
      <point x="7" y="-5" type="line"/>
      <point x="7" y="-4" type="line"/>
      <point x="8" y="-4" type="line"/>
      <point x="8" y="-3" type="line"/>
      <point x="9" y="-3" type="line"/>
      <point x="9" y="-2" type="line"/>
      <point x="9" y="-1" type="line"/>
      <point x="9" y="0" type="line"/>
      <point x="9" y="1" type="line"/>
      <point x="9" y="2" type="line"/>
      <point x="9" y="3" type="line"/>
      <point x="8" y="3" type="line"/>
      <point x="8" y="4" type="line"/>
      <point x="8" y="5" type="line"/>
      <point x="7" y="5" type="line"/>
      <point x="7" y="6" type="line"/>
      <point x="8" y="6" type="line"/>
      <point x="9" y="6" type="line"/>
      <point x="10" y="6" type="line"/>
      <point x="10" y="7" type="line"/>
      <point x="10" y="8" type="line"/>
      <point x="9" y="8" type="line"/>
      <point x="8" y="8" type="line"/>
      <point x="7" y="8" type="line"/>
      <point x="7" y="9" type="line"/>
      <point x="7" y="10" type="line"/>
      <point x="8" y="10" type="line"/>
      <point x="8" y="11" type="line"/>
      <point x="8" y="12" type="line"/>
      <point x="9" y="12" type="line"/>
      <point x="9" y="13" type="line"/>
      <point x="9" y="14" type="line"/>
      <point x="9" y="15" type="line"/>
      <point x="9" y="16" type="line"/>
      <point x="9" y="17" type="line"/>
      <point x="9" y="18" type="line"/>
      <point x="8" y="18" type="line"/>
      <point x="8" y="19" type="line"/>
      <point x="7" y="19" type="line"/>
      <point x="7" y="20" type="line"/>
      <point x="6" y="20" type="line"/>
      <point x="5" y="20" type="line"/>
      <point x="4" y="20" type="line"/>
    </contour>
  </outline>
</glyph>
<glyph name="ordfeminine" format="2">
  <advance width="11"/>
    <unicode hex="00AA"/>
  <outline>
    <contour>
      <point x="4" y="19" type="line"/>
      <point x="3" y="19" type="line"/>
      <point x="3" y="18" type="line"/>
      <point x="2" y="18" type="line"/>
      <point x="2" y="17" type="line"/>
      <point x="3" y="17" type="line"/>
      <point x="3" y="16" type="line"/>
      <point x="4" y="16" type="line"/>
      <point x="4" y="17" type="line"/>
      <point x="5" y="17" type="line"/>
      <point x="6" y="17" type="line"/>
      <point x="7" y="17" type="line"/>
      <point x="7" y="16" type="line"/>
      <point x="7" y="15" type="line"/>
      <point x="6" y="15" type="line"/>
      <point x="5" y="15" type="line"/>
      <point x="4" y="15" type="line"/>
      <point x="3" y="15" type="line"/>
      <point x="3" y="14" type="line"/>
      <point x="2" y="14" type="line"/>
      <point x="1" y="14" type="line"/>
      <point x="1" y="13" type="line"/>
      <point x="1" y="12" type="line"/>
      <point x="2" y="12" type="line"/>
      <point x="2" y="11" type="line"/>
      <point x="3" y="11" type="line"/>
      <point x="4" y="11" type="line"/>
      <point x="5" y="11" type="line"/>
      <point x="6" y="11" type="line"/>
      <point x="6" y="12" type="line"/>
      <point x="5" y="12" type="line"/>
      <point x="4" y="12" type="line"/>
      <point x="4" y="13" type="line"/>
      <point x="4" y="14" type="line"/>
      <point x="5" y="14" type="line"/>
      <point x="6" y="14" type="line"/>
      <point x="7" y="14" type="line"/>
      <point x="7" y="13" type="line"/>
      <point x="6" y="13" type="line"/>
      <point x="6" y="12" type="line"/>
      <point x="7" y="12" type="line"/>
      <point x="7" y="11" type="line"/>
      <point x="8" y="11" type="line"/>
      <point x="9" y="11" type="line"/>
      <point x="9" y="12" type="line"/>
      <point x="9" y="13" type="line"/>
      <point x="9" y="14" type="line"/>
      <point x="9" y="15" type="line"/>
      <point x="9" y="16" type="line"/>
      <point x="9" y="17" type="line"/>
      <point x="9" y="18" type="line"/>
      <point x="8" y="18" type="line"/>
      <point x="8" y="19" type="line"/>
      <point x="7" y="19" type="line"/>
      <point x="6" y="19" type="line"/>
      <point x="5" y="19" type="line"/>
    </contour>
  </outline>
</glyph>
<glyph name="divide" format="2">
  <advance width="16"/>
    <unicode hex="00F7"/>
  <outline>
    <contour>
      <point x="8" y="15" type="line"/>
      <point x="7" y="15" type="line"/>
      <point x="7" y="14" type="line"/>
      <point x="6" y="14" type="line"/>
      <point x="6" y="13" type="line"/>
      <point x="6" y="12" type="line"/>
      <point x="7" y="12" type="line"/>
      <point x="7" y="11" type="line"/>
      <point x="8" y="11" type="line"/>
      <point x="9" y="11" type="line"/>
      <point x="9" y="12" type="line"/>
      <point x="10" y="12" type="line"/>
      <point x="10" y="13" type="line"/>
      <point x="10" y="14" type="line"/>
      <point x="9" y="14" type="line"/>
      <point x="9" y="15" type="line"/>
    </contour>
    <contour>
      <point x="2" y="9" type="line"/>
      <point x="1" y="9" type="line"/>
      <point x="1" y="8" type="line"/>
      <point x="1" y="7" type="line"/>
      <point x="2" y="7" type="line"/>
      <point x="3" y="7" type="line"/>
      <point x="4" y="7" type="line"/>
      <point x="5" y="7" type="line"/>
      <point x="6" y="7" type="line"/>
      <point x="7" y="7" type="line"/>
      <point x="8" y="7" type="line"/>
      <point x="9" y="7" type="line"/>
      <point x="10" y="7" type="line"/>
      <point x="11" y="7" type="line"/>
      <point x="12" y="7" type="line"/>
      <point x="13" y="7" type="line"/>
      <point x="14" y="7" type="line"/>
      <point x="15" y="7" type="line"/>
      <point x="15" y="8" type="line"/>
      <point x="15" y="9" type="line"/>
      <point x="14" y="9" type="line"/>
      <point x="13" y="9" type="line"/>
      <point x="12" y="9" type="line"/>
      <point x="11" y="9" type="line"/>
      <point x="10" y="9" type="line"/>
      <point x="9" y="9" type="line"/>
      <point x="8" y="9" type="line"/>
      <point x="7" y="9" type="line"/>
      <point x="6" y="9" type="line"/>
      <point x="5" y="9" type="line"/>
      <point x="4" y="9" type="line"/>
      <point x="3" y="9" type="line"/>
    </contour>
    <contour>
      <point x="8" y="4" type="line"/>
      <point x="7" y="4" type="line"/>
      <point x="7" y="3" type="line"/>
      <point x="6" y="3" type="line"/>
      <point x="6" y="2" type="line"/>
      <point x="6" y="1" type="line"/>
      <point x="7" y="1" type="line"/>
      <point x="7" y="0" type="line"/>
      <point x="8" y="0" type="line"/>
      <point x="9" y="0" type="line"/>
      <point x="9" y="1" type="line"/>
      <point x="10" y="1" type="line"/>
      <point x="10" y="2" type="line"/>
      <point x="10" y="3" type="line"/>
      <point x="9" y="3" type="line"/>
      <point x="9" y="4" type="line"/>
    </contour>
  </outline>
</glyph>
<glyph name="quoteleft" format="2">
  <advance width="7"/>
    <unicode hex="2018"/>
  <outline>
    <contour>
      <point x="4" y="20" type="line"/>
      <point x="3" y="20" type="line"/>
      <point x="3" y="19" type="line"/>
      <point x="3" y="18" type="line"/>
      <point x="3" y="17" type="line"/>
      <point x="2" y="17" type="line"/>
      <point x="2" y="16" type="line"/>
      <point x="2" y="15" type="line"/>
      <point x="2" y="14" type="line"/>
      <point x="3" y="14" type="line"/>
      <point x="4" y="14" type="line"/>
      <point x="5" y="14" type="line"/>
      <point x="5" y="15" type="line"/>
      <point x="5" y="16" type="line"/>
      <point x="5" y="17" type="line"/>
      <point x="5" y="18" type="line"/>
      <point x="5" y="19" type="line"/>
      <point x="5" y="20" type="line"/>
    </contour>
  </outline>
</glyph>
<glyph name="trademark" format="2">
  <advance width="20"/>
    <unicode hex="2122"/>
  <outline>
    <contour>
      <point x="2" y="19" type="line"/>
      <point x="1" y="19" type="line"/>
      <point x="1" y="18" type="line"/>
      <point x="1" y="17" type="line"/>
      <point x="2" y="17" type="line"/>
      <point x="3" y="17" type="line"/>
      <point x="4" y="17" type="line"/>
      <point x="4" y="16" type="line"/>
      <point x="4" y="15" type="line"/>
      <point x="4" y="14" type="line"/>
      <point x="4" y="13" type="line"/>
      <point x="4" y="12" type="line"/>
      <point x="4" y="11" type="line"/>
      <point x="4" y="10" type="line"/>
      <point x="5" y="10" type="line"/>
      <point x="6" y="10" type="line"/>
      <point x="6" y="11" type="line"/>
      <point x="6" y="12" type="line"/>
      <point x="6" y="13" type="line"/>
      <point x="6" y="14" type="line"/>
      <point x="6" y="15" type="line"/>
      <point x="6" y="16" type="line"/>
      <point x="6" y="17" type="line"/>
      <point x="7" y="17" type="line"/>
      <point x="8" y="17" type="line"/>
      <point x="9" y="17" type="line"/>
      <point x="9" y="18" type="line"/>
      <point x="9" y="19" type="line"/>
      <point x="8" y="19" type="line"/>
      <point x="7" y="19" type="line"/>
      <point x="6" y="19" type="line"/>
      <point x="5" y="19" type="line"/>
      <point x="4" y="19" type="line"/>
      <point x="3" y="19" type="line"/>
    </contour>
    <contour>
      <point x="11" y="19" type="line"/>
      <point x="10" y="19" type="line"/>
      <point x="10" y="18" type="line"/>
      <point x="10" y="17" type="line"/>
      <point x="10" y="16" type="line"/>
      <point x="10" y="15" type="line"/>
      <point x="10" y="14" type="line"/>
      <point x="10" y="13" type="line"/>
      <point x="10" y="12" type="line"/>
      <point x="10" y="11" type="line"/>
      <point x="10" y="10" type="line"/>
      <point x="11" y="10" type="line"/>
      <point x="12" y="10" type="line"/>
      <point x="12" y="11" type="line"/>
      <point x="12" y="12" type="line"/>
      <point x="12" y="13" type="line"/>
      <point x="12" y="14" type="line"/>
      <point x="12" y="15" type="line"/>
      <point x="13" y="15" type="line"/>
      <point x="13" y="14" type="line"/>
      <point x="14" y="14" type="line"/>
      <point x="14" y="13" type="line"/>
      <point x="15" y="13" type="line"/>
      <point x="15" y="14" type="line"/>
      <point x="16" y="14" type="line"/>
      <point x="16" y="15" type="line"/>
      <point x="17" y="15" type="line"/>
      <point x="17" y="14" type="line"/>
      <point x="17" y="13" type="line"/>
      <point x="17" y="12" type="line"/>
      <point x="17" y="11" type="line"/>
      <point x="17" y="10" type="line"/>
      <point x="18" y="10" type="line"/>
      <point x="19" y="10" type="line"/>
      <point x="19" y="11" type="line"/>
      <point x="19" y="12" type="line"/>
      <point x="19" y="13" type="line"/>
      <point x="19" y="14" type="line"/>
      <point x="19" y="15" type="line"/>
      <point x="19" y="16" type="line"/>
      <point x="19" y="17" type="line"/>
      <point x="19" y="18" type="line"/>
      <point x="19" y="19" type="line"/>
      <point x="18" y="19" type="line"/>
      <point x="17" y="19" type="line"/>
      <point x="17" y="18" type="line"/>
      <point x="16" y="18" type="line"/>
      <point x="16" y="17" type="line"/>
      <point x="15" y="17" type="line"/>
      <point x="15" y="16" type="line"/>
      <point x="14" y="16" type="line"/>
      <point x="14" y="17" type="line"/>
      <point x="13" y="17" type="line"/>
      <point x="13" y="18" type="line"/>
      <point x="12" y="18" type="line"/>
      <point x="12" y="19" type="line"/>
    </contour>
  </outline>
</glyph>
<glyph name="minus" format="2">
  <advance width="16"/>
    <unicode hex="2212"/>
  <outline>
    <contour>
      <point x="2" y="9" type="line"/>
      <point x="1" y="9" type="line"/>
      <point x="1" y="8" type="line"/>
      <point x="1" y="7" type="line"/>
      <point x="2" y="7" type="line"/>
      <point x="3" y="7" type="line"/>
      <point x="4" y="7" type="line"/>
      <point x="5" y="7" type="line"/>
      <point x="6" y="7" type="line"/>
      <point x="7" y="7" type="line"/>
      <point x="8" y="7" type="line"/>
      <point x="9" y="7" type="line"/>
      <point x="10" y="7" type="line"/>
      <point x="11" y="7" type="line"/>
      <point x="12" y="7" type="line"/>
      <point x="13" y="7" type="line"/>
      <point x="14" y="7" type="line"/>
      <point x="15" y="7" type="line"/>
      <point x="15" y="8" type="line"/>
      <point x="15" y="9" type="line"/>
      <point x="14" y="9" type="line"/>
      <point x="13" y="9" type="line"/>
      <point x="12" y="9" type="line"/>
      <point x="11" y="9" type="line"/>
      <point x="10" y="9" type="line"/>
      <point x="9" y="9" type="line"/>
      <point x="8" y="9" type="line"/>
      <point x="7" y="9" type="line"/>
      <point x="6" y="9" type="line"/>
      <point x="5" y="9" type="line"/>
      <point x="4" y="9" type="line"/>
      <point x="3" y="9" type="line"/>
    </contour>
  </outline>
</glyph>
